<svg width="0" height="0" class="hidden">
  <symbol fill="none" xmlns="http://www.w3.org/2000/svg" viewBox="0 0 28 28" id="drebbble">
    <path d="M27 14C27.0022 15.7123 26.665 17.4081 26.008 18.9893C25.351 20.5705 24.3871 22.0059 23.1721 23.2124C21.9671 24.4154 20.5368 25.369 18.963 26.0189C17.3892 26.6688 15.7027 27.0022 14 27C6.82011 27 1.00001 21.1799 1.00001 14C0.995466 10.6667 2.27588 7.45981 4.57501 5.04626C5.78813 3.76615 7.2497 2.74704 8.87029 2.05131C10.4909 1.35557 12.2364 0.997844 14 1.00001C15.7027 0.997806 17.3892 1.33117 18.963 1.98106C20.5368 2.63095 21.9671 3.58462 23.1721 4.78756C24.3871 5.9941 25.351 7.42946 26.008 9.0107C26.665 10.5919 27.0022 12.2877 27 14Z" stroke="black" stroke-width="1.66667" stroke-linecap="round" stroke-linejoin="round"></path>
    <path d="M26.9996 14.0002C25.1029 14.0002 19.8704 13.2852 15.1871 15.3412C10.0996 17.5752 6.41605 21.041 4.81055 23.1957" stroke="black" stroke-width="1.66667" stroke-linecap="round" stroke-linejoin="round"></path>
    <path d="M9.125 1.94531C11.1595 3.82316 15.599 8.60391 17.25 13.3502C18.901 18.0965 19.512 23.9322 19.889 25.5929" stroke="black" stroke-width="1.66667" stroke-linecap="round" stroke-linejoin="round"></path>
    <path d="M1.10059 12.3751C3.55628 12.5233 10.0569 12.6565 14.2169 10.8801C18.3769 9.10361 21.9565 5.83607 23.1843 4.79932M1.97549 18.9485C3.12099 21.7213 5.18694 24.0148 7.82548 25.4426" stroke="black" stroke-width="1.66667" stroke-linecap="round" stroke-linejoin="round"></path>
    <path d="M1.00001 14C0.995466 10.6666 2.27588 7.45981 4.57501 5.04626C5.78813 3.76615 7.2497 2.74704 8.87029 2.05131C10.4909 1.35557 12.2364 0.997843 14 1.00001M19.2 2.08161C20.6805 2.72936 22.0274 3.64696 23.1721 4.78756C24.3871 5.9941 25.351 7.42946 26.008 9.0107C26.665 10.5919 27.0022 12.2877 27 14C27 15.6003 26.7107 17.1336 26.181 18.55M14 27C15.7027 27.0022 17.3892 26.6688 18.963 26.0189C20.5368 25.369 21.9671 24.4154 23.1721 23.2124" stroke="black" stroke-width="1.66667" stroke-linecap="round" stroke-linejoin="round"></path>
  </symbol>
  <symbol fill="none" xmlns="http://www.w3.org/2000/svg" viewBox="0 0 27 26" id="instagram">
    <path d="M14.8367 0.00159946C15.7853 -0.00204071 16.7339 0.00749332 17.6823 0.0301986L17.9345 0.0392982C18.2256 0.0496979 18.5129 0.0626974 18.86 0.0782969C20.2432 0.143295 21.1869 0.361687 22.015 0.682777C22.873 1.01297 23.5958 1.46015 24.3185 2.18292C24.9794 2.83239 25.4909 3.61801 25.8174 4.48515C26.1385 5.31322 26.3569 6.25829 26.4219 7.64144C26.4375 7.98723 26.4505 8.27582 26.4609 8.56701L26.4687 8.8192C26.4918 9.76712 26.5017 10.7153 26.4986 11.6635L26.4999 12.6333V14.3362C26.5031 15.2848 26.4931 16.2335 26.47 17.1818L26.4622 17.434C26.4518 17.7252 26.4388 18.0125 26.4232 18.3596C26.3582 19.7427 26.1372 20.6865 25.8174 21.5146C25.4919 22.3826 24.9803 23.1689 24.3185 23.8181C23.6685 24.4789 22.8825 24.9903 22.015 25.3169C21.1869 25.638 20.2432 25.8564 18.86 25.9214C18.5129 25.937 18.2256 25.95 17.9345 25.9604L17.6823 25.9682C16.7339 25.9913 15.7853 26.0013 14.8367 25.9981L13.8669 25.9994H12.1653C11.2166 26.0026 10.268 25.9927 9.31965 25.9695L9.06746 25.9617C8.75886 25.9505 8.45033 25.9375 8.14189 25.9227C6.75874 25.8577 5.81497 25.6367 4.9856 25.3169C4.11812 24.9911 3.33236 24.4795 2.68338 23.8181C2.02176 23.1685 1.50981 22.3824 1.18323 21.5146C0.862138 20.6865 0.643745 19.7427 0.578747 18.3596C0.56427 18.0511 0.55127 17.7426 0.539749 17.434L0.533249 17.1818C0.509283 16.2335 0.498448 15.2849 0.50075 14.3362V11.6635C0.497122 10.7153 0.506656 9.76712 0.529349 8.8192L0.538449 8.56701C0.548848 8.27582 0.561848 7.98723 0.577447 7.64144C0.642445 6.25699 0.860838 5.31452 1.18193 4.48515C1.5087 3.61758 2.02165 2.83218 2.68468 2.18423C3.33322 1.52223 4.11848 1.00981 4.9856 0.682777C5.81497 0.361687 6.75744 0.143295 8.14189 0.0782969L9.06746 0.0392982L9.31965 0.0327986C10.2676 0.00884409 11.2157 -0.00199004 12.164 0.000299598L14.8367 0.00159946ZM13.5003 6.50008C11.7765 6.50008 10.1232 7.18487 8.90427 8.40382C7.68532 9.62276 7.00053 11.276 7.00053 12.9999C7.00053 14.7237 7.68532 16.3769 8.90427 17.5959C10.1232 18.8148 11.7765 19.4996 13.5003 19.4996C15.2242 19.4996 16.8774 18.8148 18.0963 17.5959C19.3153 16.3769 20.0001 14.7237 20.0001 12.9999C20.0001 11.276 19.3153 9.62276 18.0963 8.40382C16.8774 7.18487 15.2242 6.50008 13.5003 6.50008ZM13.5003 9.09999C14.0124 9.0999 14.5196 9.20069 14.9928 9.3966C15.466 9.59251 15.8959 9.8797 16.2581 10.2418C16.6203 10.6039 16.9076 11.0337 17.1037 11.5068C17.2998 11.98 17.4007 12.4871 17.4008 12.9992C17.4009 13.5113 17.3001 14.0185 17.1042 14.4917C16.9083 14.9649 16.6211 15.3948 16.259 15.757C15.897 16.1192 15.4671 16.4065 14.994 16.6026C14.5209 16.7987 14.0137 16.8996 13.5016 16.8997C12.4673 16.8997 11.4754 16.4888 10.744 15.7575C10.0126 15.0261 9.60174 14.0342 9.60174 12.9999C9.60174 11.9655 10.0126 10.9736 10.744 10.2422C11.4754 9.51087 12.4673 9.09999 13.5016 9.09999M20.3264 4.55014C19.907 4.56693 19.5104 4.74533 19.2196 5.04799C18.9288 5.35065 18.7664 5.75408 18.7664 6.17379C18.7664 6.5935 18.9288 6.99693 19.2196 7.29959C19.5104 7.60224 19.907 7.78065 20.3264 7.79743C20.7573 7.79743 21.1706 7.62624 21.4754 7.3215C21.7801 7.01676 21.9513 6.60345 21.9513 6.17249C21.9513 5.74153 21.7801 5.32822 21.4754 5.02348C21.1706 4.71874 20.7573 4.54754 20.3264 4.54754" fill="currentColor"></path>
  </symbol>
  <symbol fill="none" xmlns="http://www.w3.org/2000/svg" viewBox="0 0 29 26" id="X-link">
    <path d="M22.6537 0H27.0643L17.428 11.0146L28.765 26H19.8886L12.9371 16.9102L4.98115 26H0.56811L10.8756 14.2183L0 0.0011986H9.10174L15.3857 8.3095L22.6537 0ZM21.1063 23.3608H23.5502L7.77375 2.50136H5.15134L21.1063 23.3608Z" fill="black"></path>
  </symbol>
  <symbol fill="none" xmlns="http://www.w3.org/2000/svg" viewBox="0 0 25 24" id="linkedin">
    <path d="M21.8333 0C22.5406 0 23.2189 0.280951 23.719 0.781048C24.219 1.28115 24.5 1.95942 24.5 2.66667V21.3333C24.5 22.0406 24.219 22.7189 23.719 23.219C23.2189 23.719 22.5406 24 21.8333 24H3.16667C2.45942 24 1.78115 23.719 1.28105 23.219C0.780951 22.7189 0.5 22.0406 0.5 21.3333V2.66667C0.5 1.95942 0.780951 1.28115 1.28105 0.781048C1.78115 0.280951 2.45942 0 3.16667 0H21.8333ZM21.1667 20.6667V13.6C21.1667 12.4472 20.7087 11.3416 19.8936 10.5264C19.0784 9.71128 17.9728 9.25333 16.82 9.25333C15.6867 9.25333 14.3667 9.94667 13.7267 10.9867V9.50667H10.0067V20.6667H13.7267V14.0933C13.7267 13.0667 14.5533 12.2267 15.58 12.2267C16.0751 12.2267 16.5499 12.4233 16.8999 12.7734C17.25 13.1235 17.4467 13.5983 17.4467 14.0933V20.6667H21.1667ZM5.67333 7.41333C6.26742 7.41333 6.83717 7.17733 7.25725 6.75725C7.67733 6.33717 7.91333 5.76742 7.91333 5.17333C7.91333 3.93333 6.91333 2.92 5.67333 2.92C5.07571 2.92 4.50257 3.1574 4.07999 3.57999C3.6574 4.00257 3.42 4.57571 3.42 5.17333C3.42 6.41333 4.43333 7.41333 5.67333 7.41333ZM7.52667 20.6667V9.50667H3.83333V20.6667H7.52667Z" fill="currentColor"></path>
  </symbol>
  <symbol fill="none" xmlns="http://www.w3.org/2000/svg" viewBox="0 0 28 26" id="facebook">
    <path d="M27.0349 13.0326C27.0349 5.8386 21.1963 0 14.0023 0C6.80832 0 0.969727 5.8386 0.969727 13.0326C0.969727 19.3403 5.45293 24.5925 11.3958 25.8045V16.9424H8.78928V13.0326H11.3958V9.77444C11.3958 7.25915 13.4419 5.21303 15.9572 5.21303H19.2153V9.12281H16.6088C15.892 9.12281 15.3056 9.70927 15.3056 10.4261V13.0326H19.2153V16.9424H15.3056V26C21.887 25.3484 27.0349 19.7965 27.0349 13.0326Z" fill="currentColor"></path>
  </symbol>
</svg>